<svg width="338" height="330" viewBox="0 0 338 330" fill="none" xmlns="http://www.w3.org/2000/svg">
<path d="M0 165C0 103.316 0 72.473 13.2536 49.5C21.9363 34.4501 34.4246 21.9525 49.4634 13.2634C72.4195 0 103.239 0 164.878 0C226.517 0 257.337 0 280.293 13.2634C295.331 21.9525 307.82 34.4501 316.502 49.5C329.756 72.473 329.756 103.316 329.756 165C329.756 226.684 329.756 257.527 316.502 280.5C307.82 295.55 295.331 308.048 280.293 316.736C257.337 330 226.517 330 164.878 330C103.239 330 72.4195 330 49.4634 316.736C34.4246 308.048 21.9363 295.55 13.2536 280.5C0 257.527 0 226.684 0 165Z" fill="#1447E6"/>
<path fill-rule="evenodd" clip-rule="evenodd" d="M231.193 62.7765C238.14 56.1273 249.091 56.0971 256.074 62.5539L256.736 63.1954L258.994 65.5651C281.868 90.1873 290.392 118.881 288.206 146.904C285.988 175.322 272.883 202.12 254.601 223.298C236.33 244.461 211.938 261.128 185.57 268.362C158.872 275.685 129.672 273.351 104.324 255.444C82.8257 240.255 74.6408 215.709 74.0847 191.863C62.0208 185.942 49.3271 178.582 36.0085 169.632L32.4892 167.241L31.7395 166.699C24.1781 160.919 22.4492 150.219 27.9601 142.365C33.4726 134.51 44.2065 132.379 52.3212 137.372L53.1018 137.879L56.3078 140.061C64.2864 145.422 71.8995 150.07 79.1387 154.083C83.8083 137.683 91.5461 121.937 101.74 108.958C117.012 89.5133 139.91 73.9633 167.961 76.2834C193.229 78.3746 211.898 91.4182 221.534 109.826C230.866 127.651 231.003 149.093 222.848 167.533C214.534 186.332 197.656 201.993 173.377 208.446C155.904 213.09 135.434 212.772 112.337 206.553V206.561C103.144 204.084 93.5081 200.665 83.4382 196.223C81.1794 195.226 79.2134 196.748 83.4382 199.391C95.3292 207.837 112.081 214.917 116.928 217.293C119.219 221.001 122.06 224.044 125.316 226.344C140.301 236.93 157.83 238.87 175.922 233.906C194.344 228.853 212.809 216.666 227.131 200.076C241.442 183.499 250.668 163.637 252.188 144.15C253.624 125.762 248.321 106.873 232.348 89.7072L230.769 88.0531L230.138 87.3724C223.853 80.2517 224.249 69.4251 231.193 62.7765ZM164.954 111.912C153.364 110.953 141.132 117.059 130.264 130.896C121.988 141.435 115.725 155.127 112.532 169.217C135.277 176.999 152.228 177.052 164.006 173.922C177.64 170.298 185.817 162.094 189.752 153.197C193.845 143.939 193.425 133.852 189.456 126.27C185.792 119.271 178.416 113.027 164.954 111.912Z" fill="#EFF6FF"/>
</svg>
